<svg width="90" height="91" viewBox="0 0 90 91" fill="none" xmlns="http://www.w3.org/2000/svg">
<rect x="0.611267" y="0.682861" width="88.7747" height="90.1197" rx="44.3873" fill="url(#paint0_linear_3409_20271)"/>
<g clip-path="url(#clip0_3409_20271)">
<g clip-path="url(#clip1_3409_20271)">
<path opacity="0.4" d="M44.9943 33.25C37.9553 33.25 32.2443 38.9609 32.2443 46C32.2443 53.0391 37.9553 58.75 44.9943 58.75C46.1697 58.75 47.1193 59.6996 47.1193 60.875C47.1193 62.0504 46.1697 63 44.9943 63C35.6045 63 27.9943 55.3898 27.9943 46C27.9943 36.6102 35.6045 29 44.9943 29C46.1697 29 47.1193 29.9496 47.1193 31.125C47.1193 32.3004 46.1697 33.25 44.9943 33.25Z" fill="#EF3739"/>
<path d="M50.9262 37.0618C51.7563 36.2317 53.1043 36.2317 53.9344 37.0618L61.3719 44.4993C62.202 45.3293 62.202 46.6774 61.3719 47.5075L53.9344 54.945C53.1043 55.775 51.7563 55.775 50.9262 54.945C50.0961 54.1149 50.0961 52.7668 50.9262 51.9368L54.7313 48.125H40.7395C39.5641 48.125 38.6145 47.1754 38.6145 46C38.6145 44.8247 39.5641 43.875 40.7395 43.875H54.7313L50.9195 40.0633C50.0895 39.2333 50.0895 37.8852 50.9195 37.0551L50.9262 37.0618Z" fill="#EF3739"/>
</g>
</g>
<defs>
<linearGradient id="paint0_linear_3409_20271" x1="8.39291" y1="-4.9377" x2="81.6043" y2="96.4231" gradientUnits="userSpaceOnUse">
<stop offset="0.1906" stop-color="#EF3739" stop-opacity="0.1"/>
<stop offset="0.7903" stop-color="#EF3739" stop-opacity="0"/>
</linearGradient>
<clipPath id="clip0_3409_20271">
<rect width="34" height="37" fill="white" transform="translate(27.9943 27)"/>
</clipPath>
<clipPath id="clip1_3409_20271">
<rect width="34" height="34" fill="white" transform="translate(27.9943 29)"/>
</clipPath>
</defs>
</svg>
