<svg width="90" height="91" viewBox="0 0 90 91" fill="none" xmlns="http://www.w3.org/2000/svg">
<rect x="0.611023" y="0.682861" width="88.7747" height="90.1197" rx="44.3873" fill="url(#paint0_linear_3409_20250)"/>
<g clip-path="url(#clip0_3409_20250)">
<g clip-path="url(#clip1_3409_20250)">
<path opacity="0.4" d="M45.0001 33.25C37.961 33.25 32.2501 38.9609 32.2501 46C32.2501 53.0391 37.961 58.75 45.0001 58.75C46.1755 58.75 47.1251 59.6996 47.1251 60.875C47.1251 62.0504 46.1755 63 45.0001 63C35.6102 63 28.0001 55.3898 28.0001 46C28.0001 36.6102 35.6102 29 45.0001 29C46.1755 29 47.1251 29.9496 47.1251 31.125C47.1251 32.3004 46.1755 33.25 45.0001 33.25Z" fill="#17AD37"/>
<path d="M49.6883 37.0618C48.8583 36.2317 47.5102 36.2317 46.6801 37.0618L39.2426 44.4993C38.4126 45.3293 38.4126 46.6774 39.2426 47.5075L46.6801 54.945C47.5102 55.775 48.8583 55.775 49.6883 54.945C50.5184 54.1149 50.5184 52.7668 49.6883 51.9368L45.8833 48.125H59.8751C61.0505 48.125 62.0001 47.1754 62.0001 46C62.0001 44.8247 61.0505 43.875 59.8751 43.875H45.8833L49.695 40.0633C50.5251 39.2333 50.5251 37.8852 49.695 37.0551L49.6883 37.0618Z" fill="#17AD37"/>
</g>
</g>
<defs>
<linearGradient id="paint0_linear_3409_20250" x1="8.39266" y1="-4.9377" x2="81.604" y2="96.4231" gradientUnits="userSpaceOnUse">
<stop offset="0.1906" stop-color="#28CA42" stop-opacity="0.1"/>
<stop offset="0.7903" stop-color="#28CA42" stop-opacity="0"/>
</linearGradient>
<clipPath id="clip0_3409_20250">
<rect width="34" height="34" fill="white" transform="translate(28.0001 29)"/>
</clipPath>
<clipPath id="clip1_3409_20250">
<rect width="34" height="34" fill="white" transform="translate(28.0001 29)"/>
</clipPath>
</defs>
</svg>
