<svg width="90" height="91" viewBox="0 0 90 91" fill="none" xmlns="http://www.w3.org/2000/svg">
<rect x="0.611267" y="0.657471" width="88.7747" height="90.1197" rx="44.3873" fill="url(#paint0_linear_3409_20290)"/>
<g clip-path="url(#clip0_3409_20290)">
<g clip-path="url(#clip1_3409_20290)">
<path d="M55.7379 48.6193V54.0713C55.7379 54.4321 56.033 54.7272 56.3937 54.7272C56.7545 54.7272 57.0496 55.0224 57.0496 55.3831V61.6059C57.0496 61.9666 57.3448 62.2617 57.7055 62.2617H61.8376C62.2229 62.2617 62.5263 61.9256 62.4853 61.5485C62.3049 59.6874 61.731 51.8249 60.5586 50.3902C59.9109 49.5867 58.345 48.7587 56.6397 48.029C56.2216 47.8322 55.7379 48.152 55.7379 48.6193ZM53.1225 57.3262H55.082C55.4427 57.3262 55.7379 57.0228 55.7297 56.6621C55.7297 56.3014 55.4345 56.0144 55.082 56.0144H53.1225C52.7618 56.0144 52.4666 56.3178 52.4748 56.6785C52.4748 57.031 52.7618 57.318 53.1225 57.3262ZM42.7677 44.7249C42.3495 44.4708 41.8084 44.7577 41.7756 45.2415C41.7675 45.3152 41.7674 45.3726 41.7674 45.4464C41.7511 45.717 41.5707 45.9547 41.3083 46.0285C41.087 46.0941 40.8 46.1843 40.4803 46.2909C40.2097 46.3811 40.0293 46.627 40.0293 46.914C40.0293 48.3159 40.0293 52.4562 40.0293 54.0631C40.0293 54.4239 40.3245 54.719 40.6606 54.719H46.2357H51.8271C52.1879 54.719 52.483 54.4239 52.483 54.0631C52.483 52.448 52.483 48.3159 52.483 46.914C52.483 46.627 52.3026 46.3811 52.0321 46.2909C51.7041 46.1843 51.4254 46.0941 51.204 46.0285C50.9417 45.9465 50.7613 45.717 50.7449 45.4464C50.7367 45.3808 50.7367 45.3152 50.7367 45.2415C50.7039 44.7495 50.171 44.4708 49.7447 44.7249C47.3999 45.717 45.0797 45.7252 42.7677 44.7249ZM37.414 57.3262H39.3735C39.7342 57.3262 40.0293 57.0228 40.0211 56.6621C40.0211 56.3014 39.726 56.0144 39.3735 56.0144H37.414C37.0533 56.0144 36.7581 56.3178 36.7663 56.6785C36.7745 57.031 37.0615 57.318 37.414 57.3262ZM35.4545 61.6059V55.3831C35.4545 55.0224 35.7497 54.7272 36.1104 54.7272C36.4712 54.7272 36.7663 54.4321 36.7663 54.0713V48.6521C36.7663 48.1847 36.2826 47.865 35.8481 48.0536C34.0772 48.8324 32.4211 49.7261 31.7652 50.5623C30.642 51.9807 30.15 59.7202 30.0025 61.5485C29.9697 61.9338 30.273 62.2535 30.6584 62.2535H34.8068C35.1594 62.2617 35.4545 61.9666 35.4545 61.6059Z" fill="#F8AA4B"/>
<path d="M38.414 35.6002C38.5452 36.5758 39.0699 37.4613 39.8734 38.0352C39.9062 38.0598 39.9308 38.0926 39.9308 38.1336C40.2013 39.7323 40.9392 41.2245 42.0624 42.3969C44.1366 44.4711 47.9982 45.2418 50.3676 42.446C51.4334 41.2408 52.1549 39.7733 52.4418 38.1828C52.45 38.1418 52.4746 38.109 52.5074 38.0844C53.3355 37.5843 53.893 36.748 54.0405 35.797C54.0569 35.6986 53.9749 35.6166 53.8766 35.6248C51.3268 35.9282 48.7688 36.0757 46.2027 36.0675C43.6201 36.0757 41.0048 35.92 38.414 35.6002ZM38.6764 32.124C38.66 31.9518 38.6518 31.7797 38.6518 31.6075C38.7338 28.492 40.8244 25.8029 43.8005 24.9502C43.8743 24.9338 43.9153 24.8601 43.9071 24.7863L43.8989 24.7453C43.8989 24.7371 43.8989 24.7289 43.8989 24.7207C43.9071 24.3108 44.235 23.9828 44.6449 23.9746H47.7276C48.1376 23.9746 48.4737 24.3108 48.4737 24.7289C48.4737 24.7371 48.4737 24.7453 48.4737 24.7535C48.4655 24.8273 48.5147 24.8929 48.5885 24.9174C51.6465 25.7209 53.8192 28.451 53.9012 31.6239C53.9012 31.7551 53.893 31.8863 53.8848 32.0092C53.8766 32.083 53.934 32.1486 54.0077 32.165C54.5079 32.2716 54.8686 32.7225 54.8604 33.239C54.8276 33.8375 54.3521 34.3212 53.7536 34.3458C51.253 34.6246 48.736 34.7722 46.2191 34.7722C43.7185 34.7722 41.2179 34.6246 38.742 34.3458C38.1435 34.313 37.6597 33.8375 37.6352 33.239C37.627 32.6405 38.0861 32.1486 38.6764 32.124ZM51.1792 26.8195C51.0644 26.7211 50.9415 26.6392 50.8185 26.549C50.5233 26.344 50.1134 26.4178 49.9084 26.7129C49.7035 27.0081 49.7773 27.418 50.0724 27.623C50.1708 27.6968 50.261 27.7624 50.3512 27.8361C50.6299 28.0575 51.0481 28.0165 51.2694 27.7296C51.499 27.4508 51.458 27.0409 51.1792 26.8195ZM53.1633 29.8612C53.0239 29.2873 52.7862 28.738 52.4582 28.2379C52.2614 27.9345 51.8515 27.8443 51.5482 28.0493C51.2448 28.2461 51.1628 28.6478 51.3514 28.9512C51.5974 29.3283 51.7695 29.7464 51.8843 30.1809C51.9745 30.5335 52.327 30.7466 52.6796 30.6565C53.0321 30.5581 53.2453 30.2137 53.1633 29.8612ZM40.9474 32.9439C41.6853 33.0259 44.2104 33.28 46.2683 33.28C47.6538 33.28 49.6215 33.157 51.5728 32.9439C51.9335 32.9029 52.1877 32.5749 52.1467 32.2142C52.1057 31.8617 51.7859 31.6075 51.4334 31.6403C49.5477 31.8453 47.6128 31.9682 46.2765 31.9682C44.6941 31.9682 42.5707 31.7961 41.1032 31.6403C40.7424 31.6075 40.4227 31.8699 40.3899 32.2306C40.3407 32.5831 40.5948 32.8947 40.9474 32.9439Z" fill="#F8AA4B"/>
</g>
</g>
<defs>
<linearGradient id="paint0_linear_3409_20290" x1="8.39291" y1="-4.96309" x2="81.6043" y2="96.3978" gradientUnits="userSpaceOnUse">
<stop offset="0.1906" stop-color="#F8AA4B" stop-opacity="0.1"/>
<stop offset="0.7903" stop-color="#FE7838" stop-opacity="0"/>
</linearGradient>
<clipPath id="clip0_3409_20290">
<rect width="38" height="36" fill="white" transform="translate(26 22.9746)"/>
</clipPath>
<clipPath id="clip1_3409_20290">
<rect width="35" height="36" fill="white" transform="translate(29 22.9746)"/>
</clipPath>
</defs>
</svg>
