<svg width="90" height="91" viewBox="0 0 90 91" fill="none" xmlns="http://www.w3.org/2000/svg">
<rect x="0.611328" y="0.708252" width="88.7747" height="90.1197" rx="44.3873" fill="url(#paint0_linear_3409_20301)"/>
<g clip-path="url(#clip0_3409_20301)">
<path d="M40.0423 33.7815C39.6556 32.8474 38.6361 32.3502 37.6617 32.6164L33.2421 33.8217C32.3682 34.0628 31.7605 34.8563 31.7605 35.7603C31.7605 48.1856 41.8353 58.2603 54.2605 58.2603C55.1645 58.2603 55.958 57.6526 56.1991 56.7787L57.4045 52.3591C57.6707 51.3848 57.1734 50.3652 56.2393 49.9785L51.4179 47.9696C50.5992 47.6281 49.65 47.8641 49.0925 48.5522L47.0635 51.0282C43.5278 49.3558 40.6651 46.493 38.9926 42.9573L41.4686 40.9333C42.1567 40.3708 42.3928 39.4266 42.0512 38.608L40.0423 33.7866V33.7815Z" fill="#28CA42"/>
<path d="M46.5764 43.4452C46.1043 42.9731 46.1043 42.2097 46.5764 41.7426L53.3565 34.9625H51.0462C50.3783 34.9625 49.8409 34.4251 49.8409 33.7571C49.8409 33.0891 50.3783 32.5518 51.0462 32.5518H56.2694C56.9374 32.5518 57.4748 33.0891 57.4748 33.7571V38.9753C57.4748 39.6433 56.9374 40.1807 56.2694 40.1807C55.6015 40.1807 55.0641 39.6433 55.0641 38.9753V36.66L48.284 43.4452C47.8119 43.9173 47.0485 43.9173 46.5814 43.4452H46.5764Z" fill="#28CA42"/>
</g>
<defs>
<linearGradient id="paint0_linear_3409_20301" x1="8.39297" y1="-4.91231" x2="81.6043" y2="96.4485" gradientUnits="userSpaceOnUse">
<stop offset="0.1906" stop-color="#28CA42" stop-opacity="0.1"/>
<stop offset="0.7903" stop-color="#28CA42" stop-opacity="0"/>
</linearGradient>
<clipPath id="clip0_3409_20301">
<rect width="25.7143" height="25.7143" fill="white" transform="translate(31.7605 32.5466)"/>
</clipPath>
</defs>
</svg>
