<svg width="159" height="73" viewBox="0 0 159 73" fill="none" xmlns="http://www.w3.org/2000/svg">
<path opacity="0.6" d="M1.19 62.1427L18.53 31.3827L38.97 20.5627L60.65 35.5627L93.92 36.8127L120.39 25.2427L145.04 38.1627L156.17 62.1427H1.19Z" fill="url(#paint0_linear_3443_15644)"/>
<path d="M156.17 63.1426C155.79 63.1426 155.43 62.9326 155.26 62.5626L144.27 38.8826L120.35 26.3426L94.11 37.8126L60.32 36.5426L38.9 21.7126L19.26 32.1126L2.06 62.6326C1.79 63.1126 1.18 63.2826 0.699999 63.0126C0.219999 62.7426 0.0499992 62.1326 0.319999 61.6526L17.81 30.6326L39.05 19.3926L60.99 34.5826L93.74 35.8126L120.44 24.1426L145.81 37.4426L157.08 61.7326C157.31 62.2326 157.09 62.8326 156.59 63.0626C156.45 63.1226 156.31 63.1526 156.17 63.1526V63.1426Z" fill="#1EB4EB"/>
<path style="mix-blend-mode:multiply" d="M18.53 38.7427C22.5948 38.7427 25.89 35.4475 25.89 31.3827C25.89 27.3179 22.5948 24.0227 18.53 24.0227C14.4652 24.0227 11.17 27.3179 11.17 31.3827C11.17 35.4475 14.4652 38.7427 18.53 38.7427Z" fill="url(#paint1_radial_3443_15644)"/>
<path d="M18.53 34.1728C20.0709 34.1728 21.32 32.9236 21.32 31.3828C21.32 29.8419 20.0709 28.5928 18.53 28.5928C16.9891 28.5928 15.74 29.8419 15.74 31.3828C15.74 32.9236 16.9891 34.1728 18.53 34.1728Z" fill="#1EB4EB"/>
<path d="M18.53 35.1728C16.44 35.1728 14.74 33.4728 14.74 31.3828C14.74 29.2928 16.44 27.5928 18.53 27.5928C20.62 27.5928 22.32 29.2928 22.32 31.3828C22.32 33.4728 20.62 35.1728 18.53 35.1728ZM18.53 29.5828C17.54 29.5828 16.74 30.3828 16.74 31.3728C16.74 32.3628 17.54 33.1628 18.53 33.1628C19.52 33.1628 20.32 32.3628 20.32 31.3728C20.32 30.3828 19.52 29.5828 18.53 29.5828Z" fill="white"/>
<path style="mix-blend-mode:multiply" d="M40.1483 27.8247C44.1606 27.1734 46.8853 23.3928 46.234 19.3805C45.5827 15.3682 41.8021 12.6436 37.7898 13.2949C33.7775 13.9461 31.0529 17.7267 31.7041 21.739C32.3554 25.7513 36.136 28.476 40.1483 27.8247Z" fill="url(#paint2_radial_3443_15644)"/>
<path d="M41.76 20.5627C41.76 19.0227 40.51 17.7727 38.97 17.7727C37.43 17.7727 36.18 19.0227 36.18 20.5627C36.18 22.1027 37.43 23.3527 38.97 23.3527C40.51 23.3527 41.76 22.1027 41.76 20.5627Z" fill="#1EB4EB"/>
<path d="M38.97 24.3527C36.88 24.3527 35.18 22.6527 35.18 20.5627C35.18 18.4727 36.88 16.7727 38.97 16.7727C41.06 16.7727 42.76 18.4727 42.76 20.5627C42.76 22.6527 41.06 24.3527 38.97 24.3527ZM38.97 18.7727C37.98 18.7727 37.18 19.5727 37.18 20.5627C37.18 21.5527 37.98 22.3527 38.97 22.3527C39.96 22.3527 40.76 21.5527 40.76 20.5627C40.76 19.5727 39.96 18.7727 38.97 18.7727Z" fill="white"/>
<path style="mix-blend-mode:multiply" d="M60.65 42.9226C64.7148 42.9226 68.01 39.6275 68.01 35.5626C68.01 31.4978 64.7148 28.2026 60.65 28.2026C56.5852 28.2026 53.29 31.4978 53.29 35.5626C53.29 39.6275 56.5852 42.9226 60.65 42.9226Z" fill="url(#paint3_radial_3443_15644)"/>
<path d="M60.65 38.3527C62.1909 38.3527 63.44 37.1036 63.44 35.5627C63.44 34.0218 62.1909 32.7727 60.65 32.7727C59.1091 32.7727 57.86 34.0218 57.86 35.5627C57.86 37.1036 59.1091 38.3527 60.65 38.3527Z" fill="#1EB4EB"/>
<path d="M60.65 39.3627C58.56 39.3627 56.86 37.6627 56.86 35.5727C56.86 33.4827 58.56 31.7827 60.65 31.7827C62.74 31.7827 64.44 33.4827 64.44 35.5727C64.44 37.6627 62.74 39.3627 60.65 39.3627ZM60.65 33.7727C59.66 33.7727 58.86 34.5727 58.86 35.5627C58.86 36.5527 59.66 37.3527 60.65 37.3527C61.64 37.3527 62.44 36.5527 62.44 35.5627C62.44 34.5727 61.64 33.7727 60.65 33.7727Z" fill="white"/>
<path style="mix-blend-mode:multiply" d="M93.92 44.1726C97.9848 44.1726 101.28 40.8775 101.28 36.8126C101.28 32.7478 97.9848 29.4526 93.92 29.4526C89.8552 29.4526 86.56 32.7478 86.56 36.8126C86.56 40.8775 89.8552 44.1726 93.92 44.1726Z" fill="url(#paint4_radial_3443_15644)"/>
<path d="M96.71 36.8127C96.71 35.2727 95.46 34.0227 93.92 34.0227C92.38 34.0227 91.13 35.2727 91.13 36.8127C91.13 38.3527 92.38 39.6027 93.92 39.6027C95.46 39.6027 96.71 38.3527 96.71 36.8127Z" fill="#1EB4EB"/>
<path d="M93.92 40.6027C91.83 40.6027 90.13 38.9027 90.13 36.8127C90.13 34.7227 91.83 33.0227 93.92 33.0227C96.01 33.0227 97.71 34.7227 97.71 36.8127C97.71 38.9027 96.01 40.6027 93.92 40.6027ZM93.92 35.0227C92.93 35.0227 92.13 35.8227 92.13 36.8127C92.13 37.8027 92.93 38.6027 93.92 38.6027C94.91 38.6027 95.71 37.8027 95.71 36.8127C95.71 35.8227 94.91 35.0227 93.92 35.0227Z" fill="white"/>
<path style="mix-blend-mode:multiply" d="M120.39 32.6026C124.455 32.6026 127.75 29.3074 127.75 25.2426C127.75 21.1778 124.455 17.8826 120.39 17.8826C116.325 17.8826 113.03 21.1778 113.03 25.2426C113.03 29.3074 116.325 32.6026 120.39 32.6026Z" fill="url(#paint5_radial_3443_15644)"/>
<path d="M120.39 28.0326C121.931 28.0326 123.18 26.7835 123.18 25.2426C123.18 23.7018 121.931 22.4526 120.39 22.4526C118.849 22.4526 117.6 23.7018 117.6 25.2426C117.6 26.7835 118.849 28.0326 120.39 28.0326Z" fill="#1EB4EB"/>
<path d="M120.39 29.0326C118.3 29.0326 116.6 27.3326 116.6 25.2426C116.6 23.1526 118.3 21.4526 120.39 21.4526C122.48 21.4526 124.18 23.1526 124.18 25.2426C124.18 27.3326 122.48 29.0326 120.39 29.0326ZM120.39 23.4526C119.4 23.4526 118.6 24.2526 118.6 25.2426C118.6 26.2326 119.4 27.0326 120.39 27.0326C121.38 27.0326 122.18 26.2326 122.18 25.2426C122.18 24.2526 121.38 23.4526 120.39 23.4526Z" fill="white"/>
<path style="mix-blend-mode:multiply" d="M145.04 45.5227C149.105 45.5227 152.4 42.2276 152.4 38.1627C152.4 34.0979 149.105 30.8027 145.04 30.8027C140.975 30.8027 137.68 34.0979 137.68 38.1627C137.68 42.2276 140.975 45.5227 145.04 45.5227Z" fill="url(#paint6_radial_3443_15644)"/>
<path d="M147.83 38.1628C147.83 36.6228 146.58 35.3728 145.04 35.3728C143.5 35.3728 142.25 36.6228 142.25 38.1628C142.25 39.7028 143.5 40.9528 145.04 40.9528C146.58 40.9528 147.83 39.7028 147.83 38.1628Z" fill="#1EB4EB"/>
<path d="M145.04 41.9528C142.95 41.9528 141.25 40.2528 141.25 38.1628C141.25 36.0728 142.95 34.3728 145.04 34.3728C147.13 34.3728 148.83 36.0728 148.83 38.1628C148.83 40.2528 147.13 41.9528 145.04 41.9528ZM145.04 36.3628C144.05 36.3628 143.25 37.1628 143.25 38.1528C143.25 39.1428 144.05 39.9428 145.04 39.9428C146.03 39.9428 146.83 39.1428 146.83 38.1528C146.83 37.1628 146.03 36.3628 145.04 36.3628Z" fill="white"/>
<defs>
<linearGradient id="paint0_linear_3443_15644" x1="78.68" y1="62.1427" x2="78.68" y2="20.5627" gradientUnits="userSpaceOnUse">
<stop stop-color="white"/>
<stop offset="1" stop-color="#1EB4EB"/>
</linearGradient>
<radialGradient id="paint1_radial_3443_15644" cx="0" cy="0" r="1" gradientUnits="userSpaceOnUse" gradientTransform="translate(18.53 31.3827) scale(7.36)">
<stop stop-color="#959C9E"/>
<stop offset="0.02" stop-color="#99A0A2"/>
<stop offset="0.22" stop-color="#BDC2C3"/>
<stop offset="0.42" stop-color="#DADCDD"/>
<stop offset="0.61" stop-color="#EEEFF0"/>
<stop offset="0.81" stop-color="#FAFBFB"/>
<stop offset="1" stop-color="white"/>
</radialGradient>
<radialGradient id="paint2_radial_3443_15644" cx="0" cy="0" r="1" gradientUnits="userSpaceOnUse" gradientTransform="translate(38.9639 20.5656) scale(7.36)">
<stop stop-color="#959C9E"/>
<stop offset="0.02" stop-color="#99A0A2"/>
<stop offset="0.22" stop-color="#BDC2C3"/>
<stop offset="0.42" stop-color="#DADCDD"/>
<stop offset="0.61" stop-color="#EEEFF0"/>
<stop offset="0.81" stop-color="#FAFBFB"/>
<stop offset="1" stop-color="white"/>
</radialGradient>
<radialGradient id="paint3_radial_3443_15644" cx="0" cy="0" r="1" gradientUnits="userSpaceOnUse" gradientTransform="translate(60.65 35.5626) scale(7.36)">
<stop stop-color="#959C9E"/>
<stop offset="0.02" stop-color="#99A0A2"/>
<stop offset="0.22" stop-color="#BDC2C3"/>
<stop offset="0.42" stop-color="#DADCDD"/>
<stop offset="0.61" stop-color="#EEEFF0"/>
<stop offset="0.81" stop-color="#FAFBFB"/>
<stop offset="1" stop-color="white"/>
</radialGradient>
<radialGradient id="paint4_radial_3443_15644" cx="0" cy="0" r="1" gradientUnits="userSpaceOnUse" gradientTransform="translate(93.92 36.8126) scale(7.36)">
<stop stop-color="#959C9E"/>
<stop offset="0.02" stop-color="#99A0A2"/>
<stop offset="0.22" stop-color="#BDC2C3"/>
<stop offset="0.42" stop-color="#DADCDD"/>
<stop offset="0.61" stop-color="#EEEFF0"/>
<stop offset="0.81" stop-color="#FAFBFB"/>
<stop offset="1" stop-color="white"/>
</radialGradient>
<radialGradient id="paint5_radial_3443_15644" cx="0" cy="0" r="1" gradientUnits="userSpaceOnUse" gradientTransform="translate(120.39 25.2426) scale(7.36)">
<stop stop-color="#959C9E"/>
<stop offset="0.02" stop-color="#99A0A2"/>
<stop offset="0.22" stop-color="#BDC2C3"/>
<stop offset="0.42" stop-color="#DADCDD"/>
<stop offset="0.61" stop-color="#EEEFF0"/>
<stop offset="0.81" stop-color="#FAFBFB"/>
<stop offset="1" stop-color="white"/>
</radialGradient>
<radialGradient id="paint6_radial_3443_15644" cx="0" cy="0" r="1" gradientUnits="userSpaceOnUse" gradientTransform="translate(145.04 38.1627) scale(7.36 7.36)">
<stop stop-color="#959C9E"/>
<stop offset="0.02" stop-color="#99A0A2"/>
<stop offset="0.22" stop-color="#BDC2C3"/>
<stop offset="0.42" stop-color="#DADCDD"/>
<stop offset="0.61" stop-color="#EEEFF0"/>
<stop offset="0.81" stop-color="#FAFBFB"/>
<stop offset="1" stop-color="white"/>
</radialGradient>
</defs>
</svg>
