<svg width="90" height="91" viewBox="0 0 90 91" fill="none" xmlns="http://www.w3.org/2000/svg">
<rect x="0.611359" y="0.708252" width="88.7747" height="90.1197" rx="44.3873" fill="url(#paint0_linear_3409_20309)"/>
<g clip-path="url(#clip0_3409_20309)">
<path d="M40.0423 32.8912C39.6556 31.874 38.6361 31.3326 37.6618 31.6225L33.2421 32.935C32.3682 33.1975 31.7605 34.0615 31.7605 35.0459C31.7605 48.5756 41.8353 59.5459 54.2605 59.5459C55.1645 59.5459 55.9581 58.8842 56.1991 57.9326L57.4045 53.1201C57.6707 52.0592 57.1735 50.949 56.2393 50.5279L51.4179 48.3404C50.5992 47.9686 49.65 48.2256 49.0926 48.9748L47.0635 51.6709C43.5278 49.8498 40.6651 46.7326 38.9927 42.8826L41.4687 40.6787C42.1567 40.0662 42.3928 39.0381 42.0513 38.1467L40.0423 32.8967V32.8912Z" fill="#28CA42"/>
<path d="M57.1232 31.9295C57.5953 32.4436 57.5953 33.2748 57.1232 33.7834L50.3431 41.1662H52.6534C53.3213 41.1662 53.8587 41.7514 53.8587 42.4787C53.8587 43.2061 53.3213 43.7912 52.6534 43.7912H47.4302C46.7622 43.7912 46.2248 43.2061 46.2248 42.4787V36.7967C46.2248 36.0693 46.7622 35.4842 47.4302 35.4842C48.0981 35.4842 48.6355 36.0693 48.6355 36.7967V39.3178L55.4157 31.9295C55.8878 31.4154 56.6511 31.4154 57.1182 31.9295H57.1232Z" fill="#28CA42"/>
</g>
<defs>
<linearGradient id="paint0_linear_3409_20309" x1="8.393" y1="-4.91231" x2="81.6044" y2="96.4485" gradientUnits="userSpaceOnUse">
<stop offset="0.1906" stop-color="#28CA42" stop-opacity="0.1"/>
<stop offset="0.7903" stop-color="#28CA42" stop-opacity="0"/>
</linearGradient>
<clipPath id="clip0_3409_20309">
<rect width="25.7143" height="28" fill="white" transform="translate(31.7605 31.5466)"/>
</clipPath>
</defs>
</svg>
