<svg width="90" height="91" viewBox="0 0 90 91" fill="none" xmlns="http://www.w3.org/2000/svg">
<rect x="0.611023" y="0.195557" width="88.7747" height="90.1197" rx="44.3873" fill="url(#paint0_linear_3409_20242)"/>
<path d="M46.4062 31.0013C53.9121 31.0013 60 37.0889 60 44.5945C60 45.3737 59.373 46.0007 58.5938 46.0007C57.8145 46.0007 57.1875 45.3737 57.1875 44.5945C57.1875 38.6416 52.3594 33.8137 46.4062 33.8137C45.627 33.8137 45 33.1868 45 32.4075C45 31.6282 45.627 31.0013 46.4062 31.0013ZM46.875 42.2508C47.3723 42.2508 47.8492 42.4484 48.2008 42.8C48.5525 43.1516 48.75 43.6285 48.75 44.1257C48.75 44.623 48.5525 45.0999 48.2008 45.4515C47.8492 45.8031 47.3723 46.0007 46.875 46.0007C46.3777 46.0007 45.9008 45.8031 45.5492 45.4515C45.1975 45.0999 45 44.623 45 44.1257C45 43.6285 45.1975 43.1516 45.5492 42.8C45.9008 42.4484 46.3777 42.2508 46.875 42.2508ZM45 38.0323C45 37.253 45.627 36.6261 46.4062 36.6261C50.8066 36.6261 54.375 40.1943 54.375 44.5945C54.375 45.3737 53.748 46.0007 52.9688 46.0007C52.1895 46.0007 51.5625 45.3737 51.5625 44.5945C51.5625 41.7469 49.2539 39.4384 46.4062 39.4384C45.627 39.4384 45 38.8115 45 38.0323ZM36.8848 31.0833C38.0215 30.7728 39.2109 31.3529 39.6621 32.4427L42.0059 38.0674C42.4043 39.0225 42.1289 40.1298 41.3262 40.7802L38.4375 43.1473C40.3887 47.2721 43.7285 50.6118 47.8535 52.5629L50.2148 49.6743C50.8711 48.8716 51.9727 48.5963 52.9277 48.9947L58.5527 51.3383C59.6426 51.7895 60.2227 52.9789 59.9121 54.1155L58.5059 59.2716C58.2305 60.291 57.3047 61 56.25 61C41.7539 61 30 49.2466 30 34.7512C30 33.6965 30.709 32.7708 31.7285 32.4895L36.8848 31.0833Z" fill="#1EB4EB"/>
<defs>
<linearGradient id="paint0_linear_3409_20242" x1="8.39266" y1="-5.425" x2="81.604" y2="95.9358" gradientUnits="userSpaceOnUse">
<stop offset="0.1906" stop-color="#33BFBF" stop-opacity="0.1"/>
<stop offset="0.7903" stop-color="#33BFBF" stop-opacity="0"/>
</linearGradient>
</defs>
</svg>
