<svg width="90" height="91" viewBox="0 0 90 91" fill="none" xmlns="http://www.w3.org/2000/svg">
<rect x="0.611267" y="0.195557" width="88.7747" height="90.1197" rx="44.3873" fill="url(#paint0_linear_3409_20262)"/>
<g clip-path="url(#clip0_3409_20262)">
<g clip-path="url(#clip1_3409_20262)">
<path d="M29.4167 30C28.6316 30 28 30.627 28 31.4062C28 32.1855 28.6316 32.8125 29.4167 32.8125H29.8889V33.9258C29.8889 36.2871 30.8333 38.5547 32.5156 40.2246L37.3323 45L32.5156 49.7754C30.8333 51.4453 29.8889 53.7129 29.8889 56.0742V57.1875H29.4167C28.6316 57.1875 28 57.8145 28 58.5938C28 59.373 28.6316 60 29.4167 60H47.5264C46.4462 59.2441 45.5135 58.2891 44.7934 57.1875H32.7222V56.0742C32.7222 54.457 33.3715 52.9102 34.5226 51.7676L39.3333 46.9863L43.1406 50.7656C43.2292 49.6348 43.4948 48.5566 43.9198 47.5605L41.3344 45L46.1451 40.2246C47.8333 38.5547 48.7778 36.2871 48.7778 33.9258V32.8125H49.25C50.0351 32.8125 50.6667 32.1855 50.6667 31.4062C50.6667 30.627 50.0351 30 49.25 30H29.4167ZM39.3333 43.0137L34.5226 38.2383C33.3715 37.0898 32.7222 35.543 32.7222 33.9258V32.8125H45.9444V33.9258C45.9444 35.543 45.2951 37.0898 44.1441 38.2324L39.3333 43.0137ZM62 51.5625C62 49.3247 61.1045 47.1786 59.5104 45.5963C57.9163 44.0139 55.7543 43.125 53.5 43.125C51.2457 43.125 49.0837 44.0139 47.4896 45.5963C45.8955 47.1786 45 49.3247 45 51.5625C45 53.8003 45.8955 55.9464 47.4896 57.5287C49.0837 59.1111 51.2457 60 53.5 60C55.7543 60 57.9163 59.1111 59.5104 57.5287C61.1045 55.9464 62 53.8003 62 51.5625ZM53.5 46.875C54.0194 46.875 54.4444 47.2969 54.4444 47.8125V50.625H56.3333C56.8528 50.625 57.2778 51.0469 57.2778 51.5625C57.2778 52.0781 56.8528 52.5 56.3333 52.5H53.5C52.9806 52.5 52.5556 52.0781 52.5556 51.5625V47.8125C52.5556 47.2969 52.9806 46.875 53.5 46.875Z" fill="#1EB4EB"/>
</g>
</g>
<defs>
<linearGradient id="paint0_linear_3409_20262" x1="8.39291" y1="-5.425" x2="81.6043" y2="95.9358" gradientUnits="userSpaceOnUse">
<stop offset="0.1906" stop-color="#1EB4EB" stop-opacity="0.1"/>
<stop offset="0.7903" stop-color="#1EB4EB" stop-opacity="0"/>
</linearGradient>
<clipPath id="clip0_3409_20262">
<rect width="33.6268" height="33.6268" fill="white" transform="translate(28.1852 28.4419)"/>
</clipPath>
<clipPath id="clip1_3409_20262">
<rect width="34" height="30" fill="white" transform="translate(28 30)"/>
</clipPath>
</defs>
</svg>
