<svg width="27" height="28" viewBox="0 0 27 28" fill="none" xmlns="http://www.w3.org/2000/svg">
<g clip-path="url(#clip0_3108_7622)">
<path d="M8.7818 1.34459C8.39509 0.327405 7.37555 -0.214001 6.40123 0.0758424L1.98158 1.38834C1.1077 1.65084 0.5 2.5149 0.5 3.49928C0.5 17.029 10.5748 27.9993 23 27.9993C23.904 27.9993 24.6975 27.3375 24.9386 26.386L26.144 21.5735C26.4101 20.5126 25.9129 19.4024 24.9788 18.9813L20.1574 16.7938C19.3387 16.4219 18.3895 16.679 17.832 17.4282L15.803 20.1243C12.2673 18.3032 9.40457 15.186 7.73214 11.336L10.2081 9.13209C10.8962 8.51959 11.1322 7.49146 10.7907 6.60006L8.7818 1.35006V1.34459Z" fill="white"/>
<path d="M25.8627 0.382861C26.3348 0.896924 26.3348 1.72817 25.8627 2.23677L19.0825 9.61958H21.3928C22.0608 9.61958 22.5982 10.2047 22.5982 10.9321C22.5982 11.6594 22.0608 12.2446 21.3928 12.2446H16.1696C15.5016 12.2446 14.9642 11.6594 14.9642 10.9321V5.25005C14.9642 4.52271 15.5016 3.93755 16.1696 3.93755C16.8376 3.93755 17.3749 4.52271 17.3749 5.25005V7.77114L24.1551 0.382861C24.6272 -0.131201 25.3906 -0.131201 25.8576 0.382861H25.8627Z" fill="white"/>
</g>
<defs>
<clipPath id="clip0_3108_7622">
<rect width="25.7143" height="28" fill="white" transform="translate(0.5)"/>
</clipPath>
</defs>
</svg>
