<?xml version="1.0" encoding="utf-8"?>
<!-- Generator: Adobe Illustrator 28.1.0, SVG Export Plug-In . SVG Version: 6.00 Build 0)  -->
<svg version="1.1" id="Layer_1" xmlns="http://www.w3.org/2000/svg" xmlns:xlink="http://www.w3.org/1999/xlink" x="0px" y="0px"
	 viewBox="0 0 512 512" style="enable-background:new 0 0 512 512;" xml:space="preserve">
<style type="text/css">
	.st0{fill-rule:evenodd;clip-rule:evenodd;fill:#FFFFFF;}
</style>
<g>
	<path class="st0" d="M501.4,252.3c0.2,53.7-17.4,105.9-50.1,148.6c-5.4,7-15.4,8.4-22.4,3c-7-5.4-8.4-15.4-3-22.4
		c28.4-37.1,43.7-82.5,43.5-129.2c0-117.7-95.7-213.4-213.4-213.4c-32.9-0.1-65.3,7.5-94.7,22.1l14.9,2.5
		c8.7,1.4,14.6,9.7,13.2,18.4c-1.3,7.7-7.9,13.4-15.8,13.4c-0.9,0-1.7-0.1-2.6-0.2l-56.8-9.3c-8.7-1.4-14.6-9.7-13.2-18.4
		c0.2-1,0.4-2.1,0.8-3.1l20.3-53.9c3.2-8.2,12.5-12.3,20.7-9.1c8.1,3.2,12.2,12.2,9.2,20.4l-3.8,10c121.9-59.4,268.8-8.8,328.3,113
		C492.9,178.2,501.4,215,501.4,252.3z M233.7,201.9c9.6-9.6,11.5-24.5,4.5-36.2l-22.7-38.1c-7.8-13.1-24.1-18.2-37.9-11.9
		l-36.9,16.8c-11.9,5.4-18.8,17.8-17.2,30.8c6.4,51.4,32.2,101.9,72.6,142.2S287,371.6,338.4,378c1.3,0.2,2.5,0.2,3.8,0.2
		c11.6,0,22.2-6.8,27-17.4l16.8-36.9c6.3-13.8,1.2-30.2-11.9-37.9L336,263.4c-11.7-7-26.6-5.1-36.2,4.5c-4.1,4-7.3,7.2-9.8,9.4
		c-12.1-1.4-27.9-10.5-41.5-24.1s-22.8-29.4-24.2-41.5C226.5,209.2,229.7,205.9,233.7,201.9L233.7,201.9z M387.3,426.5l-56.6-9.5
		c-8.7-1.5-17,4.4-18.4,13.1s4.4,17,13.1,18.4l10.3,1.7c-25.4,10.2-52.5,15.5-79.8,15.4c-117.7,0-213.4-95.8-213.4-213.4
		c-0.1-42.6,12.7-84.3,36.7-119.6c5-7.3,3.1-17.3-4.3-22.2c-7.3-5-17.3-3.1-22.2,4.3l0,0C-23.2,227,6.3,379.7,118.6,455.6
		c69.8,47.2,158.8,55.3,236,21.5l-5,13.3c-3.1,8.3,1.1,17.5,9.4,20.6c8.3,3.1,17.5-1.1,20.6-9.4l20.1-53.7
		c3.1-8.3-1.1-17.5-9.4-20.6C389.3,426.9,388.3,426.7,387.3,426.5L387.3,426.5z"/>
</g>
</svg>
