<?xml version="1.0" encoding="utf-8"?>
<!-- Generator: Adobe Illustrator 28.1.0, SVG Export Plug-In . SVG Version: 6.00 Build 0)  -->
<svg version="1.1" id="Layer_1" xmlns="http://www.w3.org/2000/svg" xmlns:xlink="http://www.w3.org/1999/xlink" x="0px" y="0px"
	 viewBox="0 0 512 512" style="enable-background:new 0 0 512 512;" xml:space="preserve">
<style type="text/css">
	.st0{fill-rule:evenodd;clip-rule:evenodd;fill:#FFFFFF;}
</style>
<g>
	<path class="st0" d="M378.7,336v74.7c0,20.6-16.7,37.3-37.3,37.3H170.7c-20.6,0-37.3-16.7-37.3-37.3V336
		c0-56,45.4-101.3,101.3-101.3h42.7C333.3,234.7,378.7,280,378.7,336z"/>
	<circle class="st0" cx="256" cy="144" r="80"/>
	<circle class="st0" cx="416" cy="170.7" r="53.3"/>
	<circle class="st0" cx="96" cy="170.7" r="53.3"/>
	<path class="st0" d="M112.2,416H64c-9.9,0-19.4-3.9-26.4-10.9c-7-7-10.9-16.5-10.9-26.4v-85.3c0-15.6,6.2-30.5,17.2-41.5
		c11-11,25.9-17.2,41.5-17.2h21.3c14.9,0,29.2,5.7,40.1,15.8C124.5,273.4,112,304.1,112,336v74.7C112,412.5,112.1,414.3,112.2,416z
		 M365.3,250.5c10.9-10.2,25.2-15.8,40.1-15.8h21.3c15.6,0,30.5,6.2,41.5,17.2c11,11,17.2,25.9,17.2,41.5v85.3
		c0,9.9-3.9,19.4-10.9,26.4c-7,7-16.5,10.9-26.4,10.9h-48.2c0.1-1.7,0.2-3.5,0.2-5.3V336C400,304.1,387.5,273.4,365.3,250.5z"/>
</g>
</svg>
