<?xml version="1.0" encoding="utf-8"?>
<!-- Generator: Adobe Illustrator 28.1.0, SVG Export Plug-In . SVG Version: 6.00 Build 0)  -->
<svg version="1.1" id="Layer_1" xmlns="http://www.w3.org/2000/svg" xmlns:xlink="http://www.w3.org/1999/xlink" x="0px" y="0px"
	 viewBox="0 0 512 512" style="enable-background:new 0 0 512 512;" xml:space="preserve">
<style type="text/css">
	.st0{fill-rule:evenodd;clip-rule:evenodd;fill:#FFFFFF;}
</style>
<g>
	<path class="st0" d="M480,384c0-55.9-45.4-101.3-101.3-101.3S277.3,328.1,277.3,384s45.4,101.3,101.3,101.3S480,439.9,480,384z
		 M362.7,341.3V384c0,6.1,3.4,11.6,8.9,14.3l21.3,10.7c7.9,4,17.5,0.7,21.5-7.2s0.7-17.5-7.2-21.5l0,0l-12.5-6.3v-32.8
		c0-8.8-7.2-16-16-16S362.7,332.5,362.7,341.3z"/>
	<path class="st0" d="M309.5,485.3C276,462.5,256,424.6,256,384c0-67.8,55-122.7,122.7-122.7c1.8,0,3.5,0,5.3,0.1V158.8
		c0-10.5-4.4-20.6-12.2-27.6L267.5,36.4c-6.9-6.2-15.8-9.7-25.1-9.7H90.7c-15.6,0-30.5,6.2-41.5,17.2C38.2,54.9,32,69.8,32,85.3
		v341.3c0,15.6,6.2,30.5,17.2,41.5c11,11,25.9,17.2,41.5,17.2H309.5z M101.3,346.7h85.3c8.8,0,16-7.2,16-16s-7.2-16-16-16h-85.3
		c-8.8,0-16,7.2-16,16S92.5,346.7,101.3,346.7z M101.3,272H240c8.8,0,16-7.2,16-16s-7.2-16-16-16H101.3c-8.8,0-16,7.2-16,16
		S92.5,272,101.3,272z M101.3,197.3H176c8.8,0,16-7.2,16-16s-7.2-16-16-16h-74.7c-8.8,0-16,7.2-16,16S92.5,197.3,101.3,197.3z
		 M240,55c2.2,0.9,4.3,2.2,6.1,3.9l104.3,94.8c2,1.8,3.6,4,4.8,6.4H250.7c-5.9,0-10.7-4.8-10.7-10.7V55z"/>
</g>
</svg>
