<svg width="26" height="26" viewBox="0 0 26 26" fill="none" xmlns="http://www.w3.org/2000/svg">
<g clip-path="url(#clip0_3108_7617)">
<path d="M8.28181 1.23491C7.89509 0.300763 6.87556 -0.196447 5.90123 0.0697359L1.48158 1.27509C0.607701 1.51616 0 2.30969 0 3.21371C0 15.6389 10.0748 25.7137 22.5 25.7137C23.404 25.7137 24.1975 25.106 24.4386 24.2321L25.644 19.8125C25.9102 18.8381 25.4129 17.8186 24.4788 17.4319L19.6574 15.423C18.8387 15.0814 17.8895 15.3175 17.332 16.0056L15.303 18.4816C11.7673 16.8091 8.90458 13.9464 7.23214 10.4107L9.70815 8.3867C10.3962 7.8242 10.6323 6.88 10.2907 6.06136L8.28181 1.23994V1.23491Z" fill="white"/>
<path d="M14.8159 10.8984C14.3438 10.4263 14.3438 9.66293 14.8159 9.19585L21.596 2.41572H19.2857C18.6178 2.41572 18.0804 1.87833 18.0804 1.21036C18.0804 0.542393 18.6178 0.00500488 19.2857 0.00500488H24.509C25.1769 0.00500488 25.7143 0.542393 25.7143 1.21036V6.42855C25.7143 7.09652 25.1769 7.63391 24.509 7.63391C23.841 7.63391 23.3036 7.09652 23.3036 6.42855V4.11326L16.5235 10.8984C16.0514 11.3705 15.288 11.3705 14.8209 10.8984H14.8159Z" fill="white"/>
</g>
<defs>
<clipPath id="clip0_3108_7617">
<rect width="25.7143" height="25.7143" fill="white"/>
</clipPath>
</defs>
</svg>
