<?xml version="1.0" encoding="utf-8"?>
<!-- Generator: Adobe Illustrator 28.1.0, SVG Export Plug-In . SVG Version: 6.00 Build 0)  -->
<svg version="1.1" id="Layer_1" xmlns="http://www.w3.org/2000/svg" xmlns:xlink="http://www.w3.org/1999/xlink" x="0px" y="0px"
	 viewBox="0 0 512 512" style="enable-background:new 0 0 512 512;" xml:space="preserve">
<style type="text/css">
	.st0{fill:#FFFFFF;}
</style>
<g>
	<g>
		<path class="st0" d="M139.3,322.1v66.5c0,4.4-3.6,8-8,8h0c-4.4,0-8,3.6-8,8v75.9c0,4.4-3.6,8-8,8H64.9c-4.7,0-8.4-4.1-7.9-8.7
			c2.2-22.7,9.2-118.6,23.5-136.1c7.9-9.8,27-19.9,47.8-28.8C133.4,312.5,139.3,316.4,139.3,322.1z M171.2,428.3h-23.9
			c-4.4,0-8-3.7-7.9-8.1c0-4.4,3.6-7.9,7.9-7.9h23.9c4.4,0,8,3.7,7.9,8.1C179.1,424.7,175.6,428.2,171.2,428.3z M255.2,396.6
			 M255,396.6 M297.5,274.6c5.1-3.1,11.7,0.4,12.1,6.3c0.1,0.9,0.1,1.6,0.1,2.5c0.2,3.3,2.4,6.2,5.6,7.1c2.7,0.8,6.2,1.9,10.1,3.2
			c3.3,1.1,5.5,4.1,5.5,7.6c0,17.1,0,67.6,0,87.2c0,4.4-3.6,8-7.7,8h-68h-68.2c-4.4,0-8-3.6-8-8c0-19.7,0-70.1,0-87.2
			c0-3.5,2.2-6.5,5.5-7.6c4-1.3,7.4-2.4,10.1-3.2c3.2-1,5.4-3.8,5.6-7.1c0.1-0.8,0.1-1.6,0.1-2.5c0.4-6,6.9-9.4,12.1-6.3
			C241,286.7,269.3,286.8,297.5,274.6z M362.8,428.3h-23.9c-4.4,0-8-3.7-7.9-8.1c0-4.4,3.6-7.9,7.9-7.9h23.9c4.4,0,8,3.7,7.9,8.1
			C370.6,424.7,367.1,428.2,362.8,428.3z M386.7,480.5v-75.9c0-4.4-3.6-8-8-8h0c-4.4,0-8-3.6-8-8v-66.1c0-5.7,5.9-9.6,11.2-7.3
			c21.6,9.5,41.8,20.4,49.8,30.6c13.7,17.3,19.7,111.7,21.5,134c0.4,4.7-3.3,8.6-8,8.6h-50.6C390.3,488.5,386.7,484.9,386.7,480.5z"
			/>
		<path class="st0" d="M350.6,163.3c-1.6,11.9-8,22.7-17.8,29.7c-0.4,0.3-0.7,0.7-0.7,1.2c-3.3,19.5-12.3,37.7-26,52
			c-25.3,25.3-72.4,34.7-101.3,0.6c-13-14.7-21.8-32.6-25.3-52c-0.1-0.5-0.4-0.9-0.8-1.2c-10.1-6.1-16.9-16.3-18.7-27.9
			c-0.2-1.2,0.8-2.2,2-2.1c31.1,3.7,62.3,5.5,93.6,5.4C287.1,169.1,319,167.2,350.6,163.3L350.6,163.3z M347.4,120.9
			c0.2-2.1,0.3-4.2,0.3-6.3c-1-38-26.5-70.8-62.8-81.2c-0.9-0.2-1.4-1.1-1.3-2l0.1-0.5c0-0.1,0-0.2,0-0.3c-0.1-5-4.1-9-9.1-9.1
			h-37.6c-5,0-9.1,4.1-9.1,9.2c0,0.1,0,0.2,0,0.3v0c0.1,0.9-0.5,1.7-1.4,2c-37.3,9.8-63.8,43.1-64.8,81.8c0,1.6,0.1,3.2,0.2,4.7
			c0.1,0.9-0.6,1.7-1.5,1.9c-6.1,1.3-10.5,6.8-10.4,13.1c0.4,7.3,6.2,13.2,13.5,13.5c30.5,3.4,61.2,5.2,91.9,5.2
			c30.5,0,61-1.8,91.2-5.2c7.3-0.4,13.2-6.2,13.5-13.5C360.2,127.2,354.6,121.2,347.4,120.9L347.4,120.9z M194.9,56.2
			c1.4-1.2,2.9-2.2,4.4-3.3c3.6-2.5,8.6-1.6,11.1,2s1.6,8.6-2,11.1c-1.2,0.9-2.3,1.7-3.4,2.6c-3.4,2.7-8.5,2.2-11.2-1.3
			C191,63.9,191.5,58.9,194.9,56.2L194.9,56.2z M170.7,93.3c1.7-7,4.6-13.7,8.6-19.8c2.4-3.7,7.4-4.8,11.1-2.3
			c3.7,2.4,4.7,7.3,2.4,11c-3,4.6-5.1,9.7-6.5,15c-1.1,4.3-5.4,6.9-9.7,5.8C172.3,101.8,169.7,97.6,170.7,93.3L170.7,93.3z
			 M319.7,130.9c-9,1-39.8,4.1-64.9,4.1c-16.9,0-40.9-1.5-64.7-4.1c-4.4-0.5-7.5-4.5-7-8.9c0.5-4.3,4.4-7.4,8.7-7
			c23,2.5,46.6,4,62.9,4c19.3,0,45.2-2.1,63.1-4c4.4-0.4,8.3,2.8,8.7,7.2C327.1,126.5,324,130.3,319.7,130.9L319.7,130.9z"/>
	</g>
</g>
</svg>
