<svg width="23" height="23" viewBox="0 0 23 23" fill="none" xmlns="http://www.w3.org/2000/svg">
<g clip-path="url(#clip0_3108_7627)">
<path opacity="0.4" d="M7.99153 2.08475C7.80043 2.08475 7.64407 2.2411 7.64407 2.4322V4.16949H5.55933V2.4322C5.55933 1.09015 6.64947 0 7.99153 0H14.2458C15.5878 0 16.678 1.09015 16.678 2.4322V4.16949H14.5932V2.4322C14.5932 2.2411 14.4369 2.08475 14.2458 2.08475H7.99153Z" fill="white"/>
<path d="M2.77966 4.16943C1.2465 4.16943 0 5.41594 0 6.94909V18.0677C0 19.6009 1.2465 20.8474 2.77966 20.8474H19.4576C20.9908 20.8474 22.2373 19.6009 22.2373 18.0677V6.94909C22.2373 5.41594 20.9908 4.16943 19.4576 4.16943H2.77966ZM9.72882 9.03384C9.72882 8.65164 10.0415 8.33892 10.4237 8.33892H11.8136C12.1958 8.33892 12.5085 8.65164 12.5085 9.03384V11.1186H14.5932C14.9754 11.1186 15.2881 11.4313 15.2881 11.8135V13.2033C15.2881 13.5855 14.9754 13.8982 14.5932 13.8982H12.5085V15.983C12.5085 16.3652 12.1958 16.6779 11.8136 16.6779H10.4237C10.0415 16.6779 9.72882 16.3652 9.72882 15.983V13.8982H7.64407C7.26187 13.8982 6.94915 13.5855 6.94915 13.2033V11.8135C6.94915 11.4313 7.26187 11.1186 7.64407 11.1186H9.72882V9.03384Z" fill="white"/>
</g>
<defs>
<clipPath id="clip0_3108_7627">
<rect width="22.2373" height="22.2373" fill="white"/>
</clipPath>
</defs>
</svg>
