<?xml version="1.0" encoding="utf-8"?>
<!-- Generator: Adobe Illustrator 28.1.0, SVG Export Plug-In . SVG Version: 6.00 Build 0)  -->
<svg version="1.1" id="Layer_1" xmlns="http://www.w3.org/2000/svg" xmlns:xlink="http://www.w3.org/1999/xlink" x="0px" y="0px"
	 viewBox="0 0 512 512" style="enable-background:new 0 0 512 512;" xml:space="preserve">
<style type="text/css">
	.st0{fill:#FFFFFF;}
</style>
<g>
	<path class="st0" d="M56.2,416.3c-4.1,0-7.5-3.3-7.5-7.3V114.8c0-4,3.4-7.3,7.5-7.3h387.3c4.1,0,7.5,3.3,7.5,7.3V409
		c0,4-3.4,7.3-7.5,7.3h-51.5L56.2,416.3z M392.6,442.8h88.6c17,0,30.8-13.8,30.8-30.8V111.9c0-17-13.8-30.8-30.8-30.8l0,0H30.8
		C13.8,81,0,94.9,0,111.9L0,412c0,17,13.8,30.8,30.8,30.8h133.6 M475,276.7c-8.3,0-15-6.7-15-15c0-8.3,6.7-15,15-15
		c8.3,0,15,6.7,15,15C490,270,483.3,276.7,475,276.7z"/>
</g>
<g>
	<path class="st0" d="M344.7,302.2l-65.4-120.1c-10.5-17.7-36.1-17.7-46.6,0l-65.4,120.1c-10.7,18.1,2.3,40.9,23.3,40.9h130.7
		C342.4,343.2,355.4,320.3,344.7,302.2z M256,321.5c-6,0-10.8-4.9-10.8-10.8c0-6,4.9-10.8,10.8-10.8c6,0,10.8,4.9,10.8,10.8
		C266.8,316.6,262,321.5,256,321.5z M266.8,278.1c0,6-4.9,10.8-10.8,10.8c-6,0-10.8-4.9-10.8-10.8v-54.2c0-6,4.9-10.8,10.8-10.8
		c6,0,10.8,4.9,10.8,10.8V278.1z"/>
</g>
</svg>
