<svg width="63" height="65" viewBox="0 0 63 65" fill="none" xmlns="http://www.w3.org/2000/svg">
<path d="M61.271 13.0353C60.093 7.53578 54.9392 2.49881 49.6069 1.42326C46.3582 0.766514 37.2986 -0.072981 31.3037 0.00506729C25.3106 -0.0634629 16.251 0.766514 13.0023 1.43849C7.66448 2.50832 2.51071 7.54529 1.33823 13.0506C0.668241 16.3895 0.00929588 20.9296 9.2735e-05 27.1373C-0.00911041 33.345 0.668241 37.8794 1.33823 41.2241C2.51623 46.7236 7.67 51.7606 13.0023 52.8362C14.7564 53.1978 18.2039 53.6071 21.9496 53.8946C22.3754 54.5849 22.8356 55.3191 23.3301 56.097C25.318 59.2095 26.8383 61.3777 27.9905 62.8892C29.9085 65.4038 32.7007 65.4038 34.6168 62.8892C35.7691 61.3777 37.2894 59.2095 39.2773 56.097C39.7743 55.3178 40.2344 54.5837 40.6578 53.8946C44.4034 53.6071 47.8528 53.1978 49.6069 52.8362C54.9447 51.7663 60.0985 46.7294 61.271 41.2241C61.941 37.8851 62.5999 33.3431 62.6091 27.1373C62.6183 20.9315 61.941 16.3762 61.271 13.0353Z" fill="url(#paint0_linear_3082_8340)"/>
<path d="M39.997 40.0288H22.6122C21.6925 40.0288 20.8105 39.6509 20.1602 38.9783C19.5098 38.3058 19.1445 37.3935 19.1445 36.4424C19.1445 35.4912 19.5098 34.579 20.1602 33.9064C20.8105 33.2338 21.6925 32.856 22.6122 32.856H39.997C40.9167 32.856 41.7987 33.2338 42.449 33.9064C43.0994 34.579 43.4647 35.4912 43.4647 36.4424C43.4647 37.3935 43.0994 38.3058 42.449 38.9783C41.7987 39.6509 40.9167 40.0288 39.997 40.0288ZM46.1097 25.0511H16.4995C15.5798 25.0511 14.6977 24.6733 14.0474 24.0007C13.3971 23.3281 13.0317 22.4159 13.0317 21.4647C13.0317 20.5135 13.3971 19.6013 14.0474 18.9287C14.6977 18.2561 15.5798 17.8783 16.4995 17.8783H46.1097C47.0294 17.8783 47.9114 18.2561 48.5618 18.9287C49.2121 19.6013 49.5774 20.5135 49.5774 21.4647C49.5774 22.4159 49.2121 23.3281 48.5618 24.0007C47.9114 24.6733 47.0294 25.0511 46.1097 25.0511Z" fill="url(#paint1_linear_3082_8340)"/>
<defs>
<linearGradient id="paint0_linear_3082_8340" x1="54.5692" y1="51.1781" x2="2.18464" y2="0.524981" gradientUnits="userSpaceOnUse">
<stop stop-color="#1EB4EB"/>
<stop offset="0.54" stop-color="#1EB4EB"/>
<stop offset="1" stop-color="#92F4FE"/>
</linearGradient>
<linearGradient id="paint1_linear_3082_8340" x1="43.2512" y1="38.148" x2="18.5543" y2="14.2664" gradientUnits="userSpaceOnUse">
<stop stop-color="#BCE4ED"/>
<stop offset="0.57" stop-color="white"/>
<stop offset="1" stop-color="white"/>
</linearGradient>
</defs>
</svg>
