<svg width="18" height="18" viewBox="0 0 18 18" fill="none" xmlns="http://www.w3.org/2000/svg">
<path d="M8.69227 0.153809C7.00352 0.153809 5.3527 0.65458 3.94856 1.5928C2.54441 2.53102 1.45002 3.86454 0.803764 5.42474C0.157508 6.98494 -0.0115818 8.70173 0.317876 10.358C0.647335 12.0143 1.46054 13.5357 2.65467 14.7299C3.84879 15.924 5.3702 16.7372 7.0265 17.0667C8.6828 17.3961 10.3996 17.227 11.9598 16.5808C13.52 15.9345 14.8535 14.8401 15.7917 13.436C16.7299 12.0318 17.2307 10.381 17.2307 8.69226C17.2307 6.42772 16.3311 4.25593 14.7299 2.65466C13.1286 1.05339 10.9568 0.153809 8.69227 0.153809Z" fill="url(#paint0_linear_3597_14279)"/>
<path d="M8.68905 14.4852C8.41443 14.4853 8.14596 14.404 7.91759 14.2515C7.68921 14.099 7.5112 13.8822 7.40606 13.6285C7.30093 13.3748 7.27339 13.0956 7.32694 12.8263C7.38049 12.5569 7.51272 12.3095 7.7069 12.1154C7.90108 11.9212 8.14849 11.7889 8.41783 11.7354C8.68718 11.6818 8.96635 11.7094 9.22004 11.8145C9.47373 11.9197 9.69054 12.0977 9.84304 12.326C9.99555 12.5544 10.0769 12.8229 10.0768 13.0975C10.0767 13.4655 9.93041 13.8184 9.67019 14.0786C9.40996 14.3389 9.05706 14.4851 8.68905 14.4852ZM10.0341 9.70522C10.0108 9.91963 9.91393 10.1193 9.75987 10.2703C9.60405 10.4226 9.4011 10.5175 9.18428 10.5395H9.17775C9.04187 10.5551 8.90519 10.5628 8.76841 10.5626C8.60437 10.5636 8.4404 10.5559 8.27719 10.5395H8.27016C8.05334 10.5175 7.85039 10.4226 7.69457 10.2703C7.54067 10.1193 7.44392 9.91958 7.42084 9.70522C7.38718 9.39181 7.37061 7.21651 7.37061 6.73183C7.37061 6.24715 7.38718 4.06582 7.42084 3.75291C7.44392 3.53856 7.54067 3.33885 7.69457 3.18787C7.85027 3.03501 8.05316 2.93941 8.27016 2.91665H8.27719C8.44039 2.90028 8.60452 2.89524 8.76841 2.90158C8.90504 2.89523 9.04196 2.90027 9.17775 2.91665H9.18428C9.40109 2.93899 9.60396 3.03405 9.75987 3.18636C9.91393 3.33729 10.0108 3.53699 10.0341 3.75141C10.0673 4.06482 10.0843 6.24614 10.0843 6.73032C10.0843 7.2145 10.0673 9.39181 10.0341 9.70522Z" fill="url(#paint1_linear_3597_14279)"/>
<defs>
<linearGradient id="paint0_linear_3597_14279" x1="14.731" y1="14.731" x2="2.65357" y2="2.65357" gradientUnits="userSpaceOnUse">
<stop stop-color="#EF3739"/>
<stop offset="0.54" stop-color="#EF3739"/>
<stop offset="1" stop-color="#FF8C8B"/>
</linearGradient>
<linearGradient id="paint1_linear_3597_14279" x1="11.9246" y1="11.8243" x2="5.49165" y2="5.39079" gradientUnits="userSpaceOnUse">
<stop stop-color="#FFD2D2"/>
<stop offset="0.57" stop-color="white"/>
<stop offset="1" stop-color="white"/>
</linearGradient>
</defs>
</svg>
