<svg width="31" height="13" viewBox="0 0 31 13" fill="none" xmlns="http://www.w3.org/2000/svg">
<path d="M30.6133 8.6215L30.3093 10.1952C30.0283 11.6665 28.6385 12.6562 27.0652 12.5045L23.9359 12.2049C22.5709 12.0741 21.5597 11.0863 21.1315 9.68325C20.5503 7.77778 20.1756 6.36527 20.1756 6.36527C18.6662 5.72369 17.0386 5.40084 15.3965 5.41728C13.4581 5.41728 12.0741 5.82492 10.6174 6.36527C10.6174 6.36527 10.2274 7.77968 9.66157 9.68325C9.28306 10.9536 8.6981 12.0665 7.36186 12.1992L4.24969 12.5102C3.49183 12.5823 2.73201 12.3937 2.09779 11.976C1.46356 11.5582 0.993553 10.9368 0.766662 10.216L0.292573 8.64614C0.0576048 7.8947 0.0362525 7.09351 0.230866 6.3308C0.42548 5.56809 0.828514 4.87343 1.3956 4.32329C4.1197 1.69735 9.02308 0.218481 15.3812 0.209001C21.7508 0.203313 26.075 1.6746 29.0725 4.29865C30.3342 5.40211 30.9134 7.06299 30.6133 8.6215Z" fill="white"/>
</svg>
