<svg width="38" height="38" viewBox="0 0 38 38" fill="none" xmlns="http://www.w3.org/2000/svg">
<path d="M1.01678 29.7936C0.365432 30.4416 0 31.317 0 32.2294C0 33.1417 0.365432 34.0171 1.01678 34.6651L2.79808 36.4292C3.12121 36.7496 3.50538 37.0038 3.92849 37.1772C4.3516 37.3507 4.80532 37.44 5.26355 37.44C5.72178 37.44 6.1755 37.3507 6.59861 37.1772C7.02172 37.0038 7.40589 36.7496 7.72902 36.4292L23.0772 21.2311L16.3706 14.5896L1.01678 29.7936Z" fill="white"/>
<path d="M29.1056 10.3899L27.3243 8.62579C26.6613 7.99826 25.7779 7.64783 24.8588 7.64783C23.9398 7.64783 23.0563 7.99826 22.3934 8.62579L17.7335 13.2401L24.4401 19.8817L29.1056 15.262C29.7571 14.6139 30.1226 13.7384 30.1226 12.8259C30.1226 11.9135 29.7571 11.038 29.1056 10.3899Z" fill="white"/>
<path d="M33.4665 6.02849C33.4665 6.28094 33.5682 6.52306 33.7492 6.70157C33.9303 6.88007 34.1759 6.98036 34.4319 6.98036C34.688 6.98036 34.9335 6.88007 35.1146 6.70157C35.2956 6.52306 35.3973 6.28094 35.3973 6.02849V4.44205H37.0064C37.2625 4.44205 37.508 4.34176 37.6891 4.16325C37.8701 3.98474 37.9718 3.74263 37.9718 3.49018C37.9718 3.23773 37.8701 2.99562 37.6891 2.81711C37.508 2.6386 37.2625 2.53831 37.0064 2.53831H35.3973V0.951867C35.3973 0.699417 35.2956 0.457306 35.1146 0.278796C34.9335 0.100286 34.688 0 34.4319 0C34.1759 0 33.9303 0.100286 33.7492 0.278796C33.5682 0.457306 33.4665 0.699417 33.4665 0.951867V2.53831H31.8574C31.6014 2.53831 31.3558 2.6386 31.1747 2.81711C30.9937 2.99562 30.892 3.23773 30.892 3.49018C30.892 3.74263 30.9937 3.98474 31.1747 4.16325C31.3558 4.34176 31.6014 4.44205 31.8574 4.44205H33.4665V6.02849Z" fill="white"/>
<path d="M37.0069 15.23H36.685V14.9127C36.685 14.6602 36.5833 14.4181 36.4022 14.2395C36.2211 14.061 35.9755 13.9607 35.7194 13.9607C35.4633 13.9607 35.2177 14.061 35.0366 14.2395C34.8556 14.4181 34.7538 14.6602 34.7538 14.9127V15.23H34.432C34.1759 15.23 33.9303 15.3303 33.7492 15.5089C33.5681 15.6874 33.4664 15.9296 33.4664 16.1821C33.4664 16.4346 33.5681 16.6767 33.7492 16.8552C33.9303 17.0338 34.1759 17.1341 34.432 17.1341H34.7538V17.4514C34.7538 17.7039 34.8556 17.9461 35.0366 18.1246C35.2177 18.3031 35.4633 18.4034 35.7194 18.4034C35.9755 18.4034 36.2211 18.3031 36.4022 18.1246C36.5833 17.9461 36.685 17.7039 36.685 17.4514V17.1341H37.0069C37.263 17.1341 37.5086 17.0338 37.6896 16.8552C37.8707 16.6767 37.9725 16.4346 37.9725 16.1821C37.9725 15.9296 37.8707 15.6874 37.6896 15.5089C37.5086 15.3303 37.263 15.23 37.0069 15.23Z" fill="white"/>
<path d="M15.1233 3.17339H15.4452V3.49073C15.4452 3.74322 15.5469 3.98537 15.728 4.1639C15.9091 4.34244 16.1547 4.44274 16.4108 4.44274C16.6668 4.44274 16.9124 4.34244 17.0935 4.1639C17.2746 3.98537 17.3763 3.74322 17.3763 3.49073V3.17339H17.6982C17.9543 3.17339 18.1999 3.07309 18.381 2.89455C18.5621 2.71601 18.6638 2.47386 18.6638 2.22137C18.6638 1.96888 18.5621 1.72673 18.381 1.54819C18.1999 1.36966 17.9543 1.26936 17.6982 1.26936H17.3763V0.952016C17.3763 0.699526 17.2746 0.457377 17.0935 0.27884C16.9124 0.100302 16.6668 0 16.4108 0C16.1547 0 15.9091 0.100302 15.728 0.27884C15.5469 0.457377 15.4452 0.699526 15.4452 0.952016V1.26936H15.1233C14.8672 1.26936 14.6216 1.36966 14.4405 1.54819C14.2594 1.72673 14.1577 1.96888 14.1577 2.22137C14.1577 2.47386 14.2594 2.71601 14.4405 2.89455C14.6216 3.07309 14.8672 3.17339 15.1233 3.17339Z" fill="white"/>
<path d="M30.5703 22.528C31.2814 22.528 31.8578 21.9597 31.8578 21.2586C31.8578 20.5576 31.2814 19.9893 30.5703 19.9893C29.8593 19.9893 29.2829 20.5576 29.2829 21.2586C29.2829 21.9597 29.8593 22.528 30.5703 22.528Z" fill="white"/>
<path d="M25.4212 6.02894C26.1323 6.02894 26.7087 5.46064 26.7087 4.75959C26.7087 4.05854 26.1323 3.49023 25.4212 3.49023C24.7102 3.49023 24.1338 4.05854 24.1338 4.75959C24.1338 5.46064 24.7102 6.02894 25.4212 6.02894Z" fill="white"/>
<path d="M16.4105 9.83632C17.1215 9.83632 17.698 9.26801 17.698 8.56696C17.698 7.86592 17.1215 7.29761 16.4105 7.29761C15.6995 7.29761 15.123 7.86592 15.123 8.56696C15.123 9.26801 15.6995 9.83632 16.4105 9.83632Z" fill="white"/>
</svg>
