<svg width="22" height="23" viewBox="0 0 22 23" fill="none" xmlns="http://www.w3.org/2000/svg">
<g clip-path="url(#clip0_3409_20075)">
<path opacity="0.4" d="M17.0424 8.01099L12.5738 11.6088C11.7282 12.2718 10.5427 12.2718 9.69708 11.6088L5.19016 8.01099" stroke="#1F2F3E" stroke-width="1.57143" stroke-linecap="round" stroke-linejoin="round"/>
<path fill-rule="evenodd" clip-rule="evenodd" d="M6.16825 2.18506H16.0451C17.4693 2.20103 18.8247 2.80308 19.7958 3.85098C20.767 4.89889 21.269 6.30119 21.185 7.73128V14.57C21.269 16.0001 20.767 17.4024 19.7958 18.4503C18.8247 19.4982 17.4693 20.1003 16.0451 20.1162H6.16825C3.1093 20.1162 1.04762 17.6277 1.04762 14.57V7.73128C1.04762 4.67363 3.1093 2.18506 6.16825 2.18506Z" stroke="#1F2F3E" stroke-width="1.57143" stroke-linecap="round" stroke-linejoin="round"/>
</g>
<defs>
<clipPath id="clip0_3409_20075">
<rect width="22" height="22" fill="white" transform="translate(0 0.0898438)"/>
</clipPath>
</defs>
</svg>
