<svg width="30" height="29" viewBox="0 0 30 29" fill="none" xmlns="http://www.w3.org/2000/svg">
<g clip-path="url(#clip0_3212_16295)">
<path d="M10.0893 1.60805C9.65932 0.569493 8.52584 0.0167124 7.44261 0.312645L2.52901 1.65272C1.55746 1.92073 0.881836 2.80295 0.881836 3.808C0.881836 17.6219 12.0826 28.8227 25.8965 28.8227C26.9016 28.8227 27.7838 28.1471 28.0518 27.1755L29.3919 22.2619C29.6878 21.1787 29.135 20.0452 28.0965 19.6153L22.7362 17.3818C21.8261 17.0021 20.7708 17.2646 20.151 18.0295L17.8952 20.7823C13.9643 18.9229 10.7816 15.7402 8.92228 11.8094L11.675 9.55915C12.44 8.93378 12.7024 7.88406 12.3227 6.97393L10.0893 1.61363V1.60805Z" fill="#FF6150"/>
<path d="M29.0761 0.634688C29.6009 1.15955 29.6009 2.00826 29.0761 2.52754L21.5382 10.0655L24.1066 10.0655C24.8493 10.0655 25.4467 10.6629 25.4467 11.4055C25.4467 12.1482 24.8493 12.7456 24.1066 12.7456L18.2997 12.7456C17.557 12.7456 16.9596 12.1482 16.9596 11.4055L16.9596 5.60413C16.9596 4.86151 17.557 4.26406 18.2997 4.26406C19.0423 4.26406 19.6397 4.86151 19.6397 5.60413L19.6397 8.17819L27.1776 0.634689C27.7025 0.109826 28.5512 0.109826 29.0705 0.634688L29.0761 0.634688Z" fill="#FF6150"/>
</g>
<defs>
<clipPath id="clip0_3212_16295">
<rect width="28.5882" height="28.5882" fill="white" transform="translate(0.881836 0.235352)"/>
</clipPath>
</defs>
</svg>
