<svg width="14" height="8" viewBox="0 0 14 8" fill="none" xmlns="http://www.w3.org/2000/svg">
<path d="M0.531249 7.7529C0.611965 7.7529 0.691622 7.74225 0.76417 7.72174C0.836718 7.70124 0.900249 7.67142 0.94994 7.63455C1.70896 7.07131 2.4132 6.6366 3.38439 6.34526C4.2832 6.07644 5.41211 5.93615 6.90625 5.90998V7.44501C6.90657 7.50511 6.93722 7.56384 6.99444 7.61396C7.05166 7.66408 7.13294 7.7034 7.22825 7.72707C7.32356 7.75074 7.42875 7.75773 7.53083 7.74717C7.63291 7.73661 7.72743 7.70897 7.80273 7.66765L13.6465 4.4348C13.6984 4.40606 13.7397 4.3715 13.768 4.33324C13.7962 4.29497 13.8108 4.25378 13.8108 4.21216C13.8108 4.17054 13.7962 4.12935 13.768 4.09108C13.7397 4.05282 13.6984 4.01827 13.6465 3.98952L7.80273 0.75667C7.72743 0.715352 7.63291 0.68771 7.53083 0.677152C7.42875 0.666594 7.32356 0.673581 7.22825 0.697253C7.13294 0.720924 7.05166 0.760244 6.99444 0.810365C6.93722 0.860486 6.90657 0.919216 6.90625 0.979313V2.52569C4.44457 2.59131 2.61043 3.1205 1.44932 4.10113C0.487421 4.91338 -9.53674e-07 6.03834 -9.53674e-07 7.44501C-9.53674e-07 7.52667 0.0559692 7.60498 0.155598 7.66272C0.255227 7.72046 0.390352 7.7529 0.531249 7.7529Z" fill="#28CA42"/>
</svg>
