<svg width="28" height="28" viewBox="0 0 28 28" fill="none" xmlns="http://www.w3.org/2000/svg">
<g style="mix-blend-mode:color">
<g clip-path="url(#clip0_3221_16354)">
<path d="M14.3728 26.3472C7.13585 26.3472 1.28662 20.5743 1.28662 13.4276C1.28662 6.28271 7.13401 0.507996 14.3728 0.507996C21.6099 0.507996 27.4591 6.28089 27.4591 13.4276C27.4591 20.5725 21.6117 26.3472 14.3728 26.3472Z" fill="black"/>
<path d="M12.8393 8.12854H9.77226C9.3488 8.12854 9.00549 8.46748 9.00549 8.88555V17.9697C9.00549 18.3877 9.3488 18.7267 9.77226 18.7267H12.8393C13.2628 18.7267 13.6061 18.3877 13.6061 17.9697V8.88555C13.6061 8.46748 13.2628 8.12854 12.8393 8.12854ZM18.9735 8.12854H15.9064C15.483 8.12854 15.1397 8.46748 15.1397 8.88555V17.9697C15.1397 18.3877 15.483 18.7267 15.9064 18.7267H18.9735C19.397 18.7267 19.7403 18.3877 19.7403 17.9697V8.88555C19.7403 8.46748 19.397 8.12854 18.9735 8.12854Z" fill="white"/>
</g>
</g>
<path d="M26 1.60443L2 25.6044" stroke="#C73537" stroke-width="3" stroke-linecap="round"/>
<defs>
<clipPath id="clip0_3221_16354">
<rect x="1.28662" y="0.507996" width="26.1724" height="25.8392" rx="12.9196" fill="white"/>
</clipPath>
</defs>
</svg>
