<svg width="26" height="24" viewBox="0 0 26 24" fill="none" xmlns="http://www.w3.org/2000/svg">
<path d="M9.36982 12.4434C11.2238 15.2637 14.1888 19.8173 15.9192 22.6019C16.3555 23.3108 17.3988 23.1625 17.7122 22.3562C20.4176 15.3495 23.2662 8.41324 25.3035 1.85292C25.6132 0.848112 24.5212 -0.238852 23.5163 0.0723328C16.4507 2.2768 8.91249 5.29121 1.33064 8.08751C0.385457 8.43723 0.391274 9.71687 1.34519 9.99751C3.5482 10.6461 7.15735 11.7563 9.36982 12.4434Z" fill="url(#paint0_linear_2236_1020)"/>
<path d="M19.1909 5.60159C19.3465 5.45617 19.1509 5.20679 18.9728 5.31876C15.5134 7.46651 11.9486 9.74296 8.40995 11.9569C8.34699 11.996 8.27636 12.0211 8.20285 12.0305C8.12934 12.0399 8.05466 12.0334 7.98389 12.0114V12.015C8.00134 13.9781 8.03696 18.2256 8.09077 20.1858C8.11621 21.0234 9.10357 21.4887 9.69613 20.9311C10.3163 20.3494 12.1122 18.2147 12.7447 17.6244L10.4981 14.1635C10.4306 14.0624 10.4016 13.9404 10.4163 13.8197C10.4309 13.699 10.4883 13.5876 10.5781 13.5055C13.4587 10.8641 16.38 8.18122 19.1909 5.60159Z" fill="url(#paint1_linear_2236_1020)"/>
<path d="M9.07917 21.1739C9.31711 21.1798 9.54795 21.0927 9.72269 20.9311C10.3429 20.3494 12.115 18.2145 12.7476 17.6241L10.5007 14.1629C10.4258 14.0434 10.3998 13.8997 10.428 13.7615L9.31913 20.5072C9.30075 20.6196 9.2495 20.724 9.17185 20.8073C9.09419 20.8906 8.9936 20.949 8.88277 20.9753C8.77194 21.0015 8.65583 20.9943 8.54908 20.9546C8.44234 20.9149 8.34973 20.8445 8.28296 20.7522C8.37386 20.8795 8.49312 20.9838 8.63131 21.057C8.7695 21.1302 8.92284 21.1702 9.07917 21.1739Z" fill="url(#paint2_linear_2236_1020)"/>
<defs>
<linearGradient id="paint0_linear_2236_1020" x1="24.0013" y1="16.2059" x2="6.20127" y2="-1.59411" gradientUnits="userSpaceOnUse">
<stop stop-color="#1EB4EB"/>
<stop offset="0.54" stop-color="#1EB4EB"/>
<stop offset="1" stop-color="#92F4FE"/>
</linearGradient>
<linearGradient id="paint1_linear_2236_1020" x1="15.6552" y1="14.9764" x2="10.3381" y2="9.65934" gradientUnits="userSpaceOnUse">
<stop stop-color="#0666BC"/>
<stop offset="0.54" stop-color="#0666BC"/>
<stop offset="1" stop-color="#1085DD"/>
</linearGradient>
<linearGradient id="paint2_linear_2236_1020" x1="8.28441" y1="17.4677" x2="12.7476" y2="17.4677" gradientUnits="userSpaceOnUse">
<stop stop-color="#1393D3"/>
<stop offset="0.52" stop-color="#1393D3"/>
<stop offset="1" stop-color="#2BB6ED"/>
</linearGradient>
</defs>
</svg>
