<svg width="33" height="34" viewBox="0 0 33 34" fill="none" xmlns="http://www.w3.org/2000/svg">
<path fill-rule="evenodd" clip-rule="evenodd" d="M9.14629 24.7414H5.08345C3.40073 24.7414 2.03638 23.3773 2.03638 21.6944C2.03638 18.3718 2.03638 11.8131 2.03638 8.49031C2.03638 6.80759 3.40073 5.44324 5.08345 5.44324H27.4287C29.1117 5.44324 30.4758 6.80759 30.4758 8.49031V21.6944C30.4758 23.3773 29.1117 24.7414 27.4287 24.7414H23.3659V25.5329C23.3659 26.7786 22.3562 27.7885 21.1103 27.7885C18.7728 27.7885 13.7393 27.7885 11.4019 27.7885C10.1562 27.7885 9.14629 26.7786 9.14629 25.5329V24.7414ZM11.1776 24.7414V25.5329C11.1776 25.6568 11.278 25.7572 11.4019 25.7572H21.1103C21.2341 25.7572 21.3346 25.6568 21.3346 25.5329V24.7414H11.1776Z" fill="url(#paint0_linear_2856_6642)"/>
<path d="M14.1016 15.1285L15.2405 13.9897V18.6473C15.2405 19.208 15.6956 19.6631 16.2562 19.6631C16.8166 19.6631 17.2718 19.208 17.2718 18.6473V13.9897L18.4109 15.1285C18.8072 15.5249 19.4508 15.5249 19.8471 15.1285C20.2435 14.7322 20.2435 14.0884 19.8471 13.692L16.9744 10.8192C16.5778 10.4226 15.9347 10.4226 15.5378 10.8192L12.6651 13.692C12.2687 14.0884 12.2687 14.7322 12.6651 15.1285C13.0614 15.5249 13.7052 15.5249 14.1016 15.1285Z" fill="white"/>
<rect x="4.76866" y="7.85051" width="23.1374" height="14.4269" rx="1.22492" stroke="white" stroke-width="0.816615"/>
<defs>
<linearGradient id="paint0_linear_2856_6642" x1="-7.44343" y1="5.44324" x2="-1.83888" y2="31.6572" gradientUnits="userSpaceOnUse">
<stop stop-color="#6ADEF7"/>
<stop offset="0.465" stop-color="#1EB4EB"/>
</linearGradient>
</defs>
</svg>
