<svg width="27" height="26" viewBox="0 0 27 26" fill="none" xmlns="http://www.w3.org/2000/svg">
<g clip-path="url(#clip0_2856_7154)">
<path d="M4.22588 -0.143066C2.17722 -0.143066 0.511597 1.52256 0.511597 3.57122V22.1426C0.511597 24.1913 2.17722 25.8569 4.22588 25.8569H22.7973C24.846 25.8569 26.5116 24.1913 26.5116 22.1426V3.57122C26.5116 1.52256 24.846 -0.143066 22.7973 -0.143066H4.22588ZM12.1187 17.9641V14.2498H8.40445C7.63258 14.2498 7.0116 13.6288 7.0116 12.8569C7.0116 12.0851 7.63258 11.4641 8.40445 11.4641H12.1187V7.74979C12.1187 6.97792 12.7397 6.35693 13.5116 6.35693C14.2835 6.35693 14.9045 6.97792 14.9045 7.74979V11.4641H18.6187C19.3906 11.4641 20.0116 12.0851 20.0116 12.8569C20.0116 13.6288 19.3906 14.2498 18.6187 14.2498H14.9045V17.9641C14.9045 18.736 14.2835 19.3569 13.5116 19.3569C12.7397 19.3569 12.1187 18.736 12.1187 17.9641Z" fill="#1EB4EB"/>
<path d="M12.1187 14.2498V17.9641C12.1187 18.736 12.7397 19.3569 13.5116 19.3569C14.2835 19.3569 14.9045 18.736 14.9045 17.9641V14.2498H18.6187C19.3906 14.2498 20.0116 13.6288 20.0116 12.8569C20.0116 12.0851 19.3906 11.4641 18.6187 11.4641H14.9045V7.74979C14.9045 6.97792 14.2835 6.35693 13.5116 6.35693C12.7397 6.35693 12.1187 6.97792 12.1187 7.74979V11.4641H8.40445C7.63258 11.4641 7.0116 12.0851 7.0116 12.8569C7.0116 13.6288 7.63258 14.2498 8.40445 14.2498H12.1187Z" fill="white"/>
</g>
<defs>
<clipPath id="clip0_2856_7154">
<rect width="26" height="26" fill="white" transform="translate(0.511597)"/>
</clipPath>
</defs>
</svg>
