<svg width="27" height="26" viewBox="0 0 27 26" fill="none" xmlns="http://www.w3.org/2000/svg">
<g clip-path="url(#clip0_2856_7150)">
<path opacity="0.4" d="M3.72588 -0.143066C1.67722 -0.143066 0.0115967 1.52256 0.0115967 3.57122V22.1426C0.0115967 24.1913 1.67722 25.8569 3.72588 25.8569H22.2973C24.346 25.8569 26.0116 24.1913 26.0116 22.1426V3.57122C26.0116 1.52256 24.346 -0.143066 22.2973 -0.143066H3.72588ZM11.6187 17.9641V14.2498H7.90445C7.13258 14.2498 6.5116 13.6288 6.5116 12.8569C6.5116 12.0851 7.13258 11.4641 7.90445 11.4641H11.6187V7.74979C11.6187 6.97792 12.2397 6.35693 13.0116 6.35693C13.7835 6.35693 14.4045 6.97792 14.4045 7.74979V11.4641H18.1187C18.8906 11.4641 19.5116 12.0851 19.5116 12.8569C19.5116 13.6288 18.8906 14.2498 18.1187 14.2498H14.4045V17.9641C14.4045 18.736 13.7835 19.3569 13.0116 19.3569C12.2397 19.3569 11.6187 18.736 11.6187 17.9641Z" fill="black"/>
<path d="M11.6187 14.2498V17.9641C11.6187 18.736 12.2397 19.3569 13.0116 19.3569C13.7835 19.3569 14.4045 18.736 14.4045 17.9641V14.2498H18.1187C18.8906 14.2498 19.5116 13.6288 19.5116 12.8569C19.5116 12.0851 18.8906 11.4641 18.1187 11.4641H14.4045V7.74979C14.4045 6.97792 13.7835 6.35693 13.0116 6.35693C12.2397 6.35693 11.6187 6.97792 11.6187 7.74979V11.4641H7.90445C7.13258 11.4641 6.5116 12.0851 6.5116 12.8569C6.5116 13.6288 7.13258 14.2498 7.90445 14.2498H11.6187Z" fill="black"/>
</g>
<defs>
<clipPath id="clip0_2856_7150">
<rect width="26" height="26" fill="white" transform="translate(0.0115967)"/>
</clipPath>
</defs>
</svg>
