<svg width="33" height="34" viewBox="0 0 33 34" fill="none" xmlns="http://www.w3.org/2000/svg">
<g style="mix-blend-mode:color">
<path fill-rule="evenodd" clip-rule="evenodd" d="M9.14116 25.3459H5.07832C3.39561 25.3459 2.03125 23.9818 2.03125 22.2989C2.03125 18.9763 2.03125 12.4176 2.03125 9.0948C2.03125 7.41209 3.39561 6.04773 5.07832 6.04773H27.4236C29.1066 6.04773 30.4707 7.41209 30.4707 9.0948V22.2989C30.4707 23.9818 29.1066 25.3459 27.4236 25.3459H23.3608V26.1374C23.3608 27.3831 22.3511 28.393 21.1052 28.393C18.7677 28.393 13.7342 28.393 11.3967 28.393C10.1511 28.393 9.14116 27.3831 9.14116 26.1374V25.3459ZM11.1725 25.3459V26.1374C11.1725 26.2613 11.2729 26.3617 11.3967 26.3617H21.1052C21.229 26.3617 21.3295 26.2613 21.3295 26.1374V25.3459H11.1725Z" fill="black"/>
</g>
<path d="M14.0965 15.733L15.2353 14.5942V19.2518C15.2353 19.8124 15.6904 20.2676 16.2511 20.2676C16.8115 20.2676 17.2666 19.8124 17.2666 19.2518V14.5942L18.4057 15.733C18.8021 16.1294 19.4456 16.1294 19.842 15.733C20.2384 15.3367 20.2384 14.6929 19.842 14.2965L16.9692 11.4237C16.5726 11.0271 15.9296 11.0271 15.5327 11.4237L12.6599 14.2965C12.2636 14.6929 12.2636 15.3367 12.6599 15.733C13.0563 16.1294 13.7001 16.1294 14.0965 15.733Z" fill="white"/>
<rect x="4.76353" y="8.455" width="23.1374" height="14.4269" rx="1.22492" stroke="white" stroke-width="0.816615"/>
<path d="M29 4L3 30" stroke="#C73537" stroke-width="3" stroke-linecap="round"/>
</svg>
