<svg width="14" height="8" viewBox="0 0 14 8" fill="none" xmlns="http://www.w3.org/2000/svg">
<path d="M13.2795 7.31039C13.1988 7.3104 13.1192 7.29974 13.0466 7.27924C12.9741 7.25873 12.9105 7.22891 12.8609 7.19205C12.1018 6.6288 11.3976 6.1941 10.4264 5.90276C9.52759 5.63393 8.39868 5.49365 6.90454 5.46748V7.0025C6.90422 7.0626 6.87357 7.12133 6.81635 7.17145C6.75913 7.22157 6.67786 7.26089 6.58254 7.28456C6.48723 7.30824 6.38205 7.31522 6.27996 7.30467C6.17788 7.29411 6.08336 7.26646 6.00806 7.22515L0.164306 3.9923C0.112376 3.96355 0.0710413 3.929 0.0428008 3.89073C0.0145602 3.85246 0 3.81128 0 3.76966C0 3.72804 0.0145602 3.68685 0.0428008 3.64858C0.0710413 3.61031 0.112376 3.57576 0.164306 3.54701L6.00806 0.314165C6.08336 0.272848 6.17788 0.245205 6.27996 0.234647C6.38205 0.224089 6.48723 0.231076 6.58254 0.254748C6.67786 0.278419 6.75913 0.317739 6.81635 0.36786C6.87357 0.417981 6.90422 0.476711 6.90454 0.536808V2.08319C9.36622 2.14881 11.2004 2.67799 12.3615 3.65862C13.3234 4.47088 13.8108 5.59583 13.8108 7.0025C13.8108 7.08416 13.7548 7.16248 13.6552 7.22022C13.5556 7.27796 13.4204 7.31039 13.2795 7.31039Z" fill="#FF5F57"/>
</svg>
