<svg width="27" height="27" viewBox="0 0 27 27" fill="none" xmlns="http://www.w3.org/2000/svg">
<g clip-path="url(#clip0_2854_9107)">
<path d="M13.3728 26.5337C6.13585 26.5337 0.286621 20.7608 0.286621 13.6141C0.286621 6.46923 6.13401 0.694519 13.3728 0.694519C20.6099 0.694519 26.4591 6.46742 26.4591 13.6141C26.4591 20.759 20.6117 26.5337 13.3728 26.5337Z" fill="url(#paint0_linear_2854_9107)"/>
<path d="M11.8393 8.31506H8.77226C8.3488 8.31506 8.00549 8.654 8.00549 9.07207V18.1562C8.00549 18.5742 8.3488 18.9132 8.77226 18.9132H11.8393C12.2628 18.9132 12.6061 18.5742 12.6061 18.1562V9.07207C12.6061 8.654 12.2628 8.31506 11.8393 8.31506ZM17.9735 8.31506H14.9064C14.483 8.31506 14.1397 8.654 14.1397 9.07207V18.1562C14.1397 18.5742 14.483 18.9132 14.9064 18.9132H17.9735C18.397 18.9132 18.7403 18.5742 18.7403 18.1562V9.07207C18.7403 8.654 18.397 8.31506 17.9735 8.31506Z" fill="white"/>
</g>
<defs>
<linearGradient id="paint0_linear_2854_9107" x1="-8.43753" y1="0.694519" x2="-0.495112" y2="30.2593" gradientUnits="userSpaceOnUse">
<stop stop-color="#6ADEF7"/>
<stop offset="0.465" stop-color="#1EB4EB"/>
</linearGradient>
<clipPath id="clip0_2854_9107">
<rect x="0.286621" y="0.694519" width="26.1724" height="25.8392" rx="12.9196" fill="white"/>
</clipPath>
</defs>
</svg>
